# xmcd
#
# Track frame offsets: 
#        150
#        25472
#        54283
#        79844
#        108075
#        135054
#        160703
#        184145
#        209556
#        231550
#
# Disc length: 3441 seconds
#
# Revision: 0
# Processed by: cddbd v1.5.1PL2 Copyright (c) Steve Scherf et al.
# Submitted via: ExactAudioCopy v0.95b4
#
DISCID=7c0d6f0a
DTITLE=Tony Smith - Backlands
DYEAR=2003
DGENRE=Blues
TTITLE0=Scatterbrain
TTITLE1=Jigaronimo
TTITLE2=Soul Thing
TTITLE3=Saint Helen
TTITLE4=All Kinds Of Cans
TTITLE5=Symmetry
TTITLE6=Darkside
TTITLE7=Green Sun
TTITLE8=Glad To Be Gone
TTITLE9=Gratis
EXTD=
EXTT0=
EXTT1=
EXTT2=
EXTT3=
EXTT4=
EXTT5=
EXTT6=
EXTT7=
EXTT8=
EXTT9=
PLAYORDER=
